<svg width="120" height="120" fill="none" xmlns="http://www.w3.org/2000/svg"><rect width="120" height="120" rx="60" fill="url(#paint0_linear_1261_2580)"/><path d="M41.25 62.716V78.75a1.875 1.875 0 001.875 1.875h33.75a1.875 1.875 0 001.875-1.875V62.716" stroke="#fff" stroke-width="2" stroke-linecap="round" stroke-linejoin="round"/><path d="M42.664 39.375h34.672a1.875 1.875 0 011.802 1.36L82.5 52.5h-45l3.361-11.765a1.875 1.875 0 011.803-1.36z" fill="#fff" stroke="#fff" stroke-width="2" stroke-linecap="round" stroke-linejoin="round"/><path d="M52.5 52.5v3.75a7.5 7.5 0 01-15 0V52.5m30 0v3.75a7.5 7.5 0 01-15 0V52.5m30 0v3.75a7.5 7.5 0 01-15 0V52.5" stroke="#fff" stroke-width="2" stroke-linecap="round" stroke-linejoin="round"/><defs><linearGradient id="paint0_linear_1261_2580" x1="19.077" y1="-28.696" x2="137.666" y2="88.451" gradientUnits="userSpaceOnUse"><stop stop-color="#FFB9AF" stop-opacity=".3"/><stop offset="1" stop-color="#A651FB"/></linearGradient></defs></svg>